<svg xmlns="http://www.w3.org/2000/svg" viewBox="0 0 256 256" focusable="false" color="var(--token-35c36f3c-8523-4623-83f9-76c6f492ff46, rgb(255, 255, 255))" style="user-select: none; width: 100%; height: 100%; display: inline-block; fill: var(--token-35c36f3c-8523-4623-83f9-76c6f492ff46, rgb(255, 255, 255)); color: var(--token-35c36f3c-8523-4623-83f9-76c6f492ff46, rgb(255, 255, 255)); flex-shrink: 0;"><g color="var(--token-35c36f3c-8523-4623-83f9-76c6f492ff46, rgb(255, 255, 255))" weight="light"><path d="M128,26A102,102,0,1,0,230,128,102.12,102.12,0,0,0,128,26Zm6,191.8V150h26a6,6,0,0,0,0-12H134V112a18,18,0,0,1,18-18h16a6,6,0,0,0,0-12H152a30,30,0,0,0-30,30v26H96a6,6,0,0,0,0,12h26v67.8a90,90,0,1,1,12,0Z"/></g></svg>